<svg width="119" height="42" viewBox="0 0 119 42" fill="none" xmlns="http://www.w3.org/2000/svg">
<path d="M0.926086 22.1413V41.5435H5.55644H10.1868V22.1413V2.73914H5.55644H0.926086V22.1413Z" fill="#EEEEEE"/>
<path d="M21.1607 3.97174C23.0129 5.70652 24.865 8.58261 25.2354 10.4087C25.4207 11.2304 25.6985 11.8696 25.8837 11.7783C26.1152 11.687 28.4304 9.63261 31.0234 7.16739L35.7926 2.73913H27.8284H19.8179L21.1607 3.97174Z" fill="#EEEEEE"/>
<path d="M42.1362 16.5717C42.1362 27.5283 42.2751 30.9065 42.8308 32.7326C44.4514 38.1652 48.6187 41.2239 54.4067 41.2696C58.2962 41.2696 62.0467 40.7217 62.0467 40.1283C62.0467 39.9 61.7226 39.7174 61.3522 39.7174C60.102 39.7174 56.3051 37.5717 54.7771 35.9739C51.9526 33.0522 51.86 32.55 51.86 16.8913V2.73912H46.9981H42.1362V16.5717Z" fill="#EEEEEE"/>
<path d="M64.9175 5.1587C66.3993 6.57391 68.0199 8.85652 68.9923 10.8196C69.872 12.6457 70.7518 14.1065 70.937 14.1065C71.0759 14.1522 71.3537 13.3304 71.5389 12.3717C71.9094 10.1804 74.2709 5.1587 75.5674 3.74348L76.5397 2.73913H69.5479H62.5098L64.9175 5.1587Z" fill="#EEEEEE"/>
<path d="M81.0311 22.1413V41.5435H85.6615H90.2918V22.1413V2.73914H85.6615H81.0311V22.1413Z" fill="#EEEEEE"/>
<path d="M101.081 3.56089C102.238 4.7935 103.951 8.9935 104.924 12.7826C106.174 17.8957 106.081 27.2544 104.692 32.4131C104.137 34.5587 103.025 37.3892 102.284 38.7587C101.544 40.1283 101.034 41.3152 101.127 41.4065C101.636 41.9087 106.961 39.9457 108.86 38.5761C111.499 36.7044 114.555 32.2305 115.62 28.8065C116.639 25.5652 116.639 18.4892 115.62 15.3848C114.509 12.0065 112.24 8.67393 109.461 6.39133C106.822 4.29133 105.248 3.56089 102.146 3.05872C100.479 2.7848 100.432 2.83046 101.081 3.56089Z" fill="#EEEEEE"/>
<path d="M17.5954 20.6804L14.5856 23.5109L21.0218 32.3218C24.5872 37.2065 27.7358 41.2696 28.0136 41.3609C28.2915 41.4978 30.6529 41.4978 33.2922 41.4522L38.0152 41.3152L29.4491 29.7196C24.7261 23.3739 20.7903 18.0783 20.744 17.987C20.6514 17.9413 19.216 19.1283 17.5954 20.6804Z" fill="#EEEEEE"/>
</svg>
